<svg id="Capa_1" enable-background="new 0 0 512 512" height="512" viewBox="0 0 512 512" width="512" xmlns="http://www.w3.org/2000/svg"><g><path d="m256 194.309c-49.334 0-89.47 40.136-89.47 89.47s40.136 89.47 89.47 89.47c49.333 0 89.47-40.136 89.47-89.47s-40.136-89.47-89.47-89.47zm0 158.653c-38.148 0-69.184-31.035-69.184-69.184 0-38.148 31.036-69.184 69.184-69.184s69.184 31.035 69.184 69.184-31.035 69.184-69.184 69.184z"/><path d="m256 235.603c-5.602 0-10.143 4.542-10.143 10.143v43.615c0 5.601 4.541 10.143 10.143 10.143 5.601 0 10.143-4.542 10.143-10.143v-43.615c0-5.602-4.541-10.143-10.143-10.143z"/><path d="m466.69 446.906h-28.579v-113.522c0-86.927-61.225-159.812-142.815-177.828v-44.632h80.756c55.571 0 100.78-45.21 100.78-100.78.001-5.602-4.541-10.144-10.142-10.144h-421.38c-5.602 0-10.143 4.542-10.143 10.143 0 55.571 45.21 100.78 100.78 100.78h80.756v44.632c-81.589 18.016-142.815 90.901-142.815 177.828v113.523h-28.577c-5.602 0-10.143 4.542-10.143 10.143v44.808c0 5.601 4.541 10.143 10.143 10.143h164.792c5.602 0 10.143-4.542 10.143-10.143s-4.541-10.143-10.143-10.143h-154.649v-24.522h401.093v24.522h-154.65c-5.601 0-10.143 4.542-10.143 10.143s4.542 10.143 10.143 10.143h164.793c5.601 0 10.143-4.542 10.143-10.143v-44.808c0-5.601-4.542-10.143-10.143-10.143zm-410.601-426.62h399.822c-5.003 39.614-38.909 70.351-79.858 70.351h-240.105c-40.95 0-74.856-30.737-79.859-70.351zm180.901 90.638h38.021v41.339c-6.25-.651-12.591-.99-19.01-.99s-12.76.339-19.01.99v-41.339zm-142.815 222.46c0-89.231 72.594-161.825 161.825-161.825s161.825 72.594 161.825 161.825v113.523h-323.65z"/><circle cx="256" cy="501.854" r="10"/></g></svg>