<?xml version="1.0" encoding="utf-8"?>
<!-- Generator: Adobe Illustrator 24.0.1, SVG Export Plug-In . SVG Version: 6.00 Build 0)  -->
<svg version="1.1" id="Camada_1" xmlns="http://www.w3.org/2000/svg" xmlns:xlink="http://www.w3.org/1999/xlink" x="0px" y="0px"
	 viewBox="0 0 512 512" style="enable-background:new 0 0 512 512;" xml:space="preserve">
<style type="text/css">
	.st0{fill:#F2D027;}
</style>
<g id="Solid">
	<path class="st0" d="M105.9,280H368c13.3,0,24-10.7,24-24c0-13.3-10.7-24-24-24H105.9l49.5-49.5c9.4-9.3,9.4-24.5,0-33.9
		c-9.3-9.4-24.5-9.4-33.9,0L31,239.1c-9.4,9.3-9.4,24.5,0,33.9l90.5,90.4c9.4,9.3,24.5,9.3,33.9,0c9.4-9.3,9.4-24.5,0.1-33.9
		L105.9,280z"/>
	<path class="st0" d="M448,24H224c-22.1,0-40,17.9-40,40v32c0,13.3,10.7,24,24,24s24-10.7,24-24V72h208v368H232v-24
		c0-13.3-10.7-24-24-24s-24,10.7-24,24v32c0,22.1,17.9,40,40,40h224c22.1,0,40-17.9,40-40V64C488,41.9,470.1,24,448,24z"/>
</g>
</svg>
